<svg xmlns="http://www.w3.org/2000/svg" xmlns:xlink="http://www.w3.org/1999/xlink" width="500" zoomAndPan="magnify" viewBox="0 0 375 127.500001" height="170" preserveAspectRatio="xMidYMid meet" version="1.0"><defs><g/><clipPath id="53f0f30824"><path d="M 52 4.613281 L 290 4.613281 L 290 87.539062 L 52 87.539062 Z M 52 4.613281 " clip-rule="nonzero"/></clipPath></defs><g clip-path="url(#53f0f30824)"><path fill="#0284c7" d="M 284.75 31.210938 C 284.648438 30.730469 284.550781 30.261719 284.421875 29.796875 L 284.011719 28.4375 C 283.796875 27.535156 283.390625 26.691406 283.113281 25.855469 C 282.386719 24.21875 281.617188 22.683594 280.691406 21.261719 C 279.722656 19.867188 278.726562 18.527344 277.546875 17.34375 C 275.207031 14.964844 272.460938 12.988281 269.203125 11.539062 L 268.589844 11.246094 L 267.960938 11.011719 C 267.535156 10.855469 267.105469 10.675781 266.667969 10.515625 C 265.78125 10.277344 264.871094 9.917969 263.914062 9.707031 C 262.957031 9.464844 261.972656 9.277344 260.9375 9.105469 C 259.902344 8.941406 258.832031 8.816406 257.683594 8.679688 C 259.34375 7.085938 261.457031 6.007812 263.710938 5.332031 C 264.84375 4.992188 266.011719 4.847656 267.210938 4.6875 C 267.8125 4.617188 268.410156 4.644531 269.015625 4.632812 L 269.929688 4.628906 C 270.234375 4.644531 270.53125 4.6875 270.839844 4.71875 C 275.714844 5.167969 280.464844 7.550781 283.941406 11.144531 C 285.703125 12.933594 287.082031 15.0625 288.144531 17.308594 C 289.171875 19.582031 289.753906 22.023438 289.960938 24.449219 C 289.984375 25.0625 289.96875 25.675781 289.964844 26.273438 C 289.960938 26.578125 289.96875 26.875 289.945312 27.175781 C 289.917969 27.476562 289.867188 27.777344 289.832031 28.074219 C 289.742188 28.671875 289.6875 29.257812 289.558594 29.839844 C 289.425781 30.417969 289.277344 30.988281 289.09375 31.550781 C 288.347656 33.785156 287.210938 35.855469 285.566406 37.46875 C 285.398438 35.179688 285.171875 33.136719 284.75 31.210938 Z M 57.222656 31.210938 C 57.328125 30.730469 57.425781 30.261719 57.554688 29.796875 L 57.960938 28.4375 C 58.179688 27.535156 58.585938 26.691406 58.859375 25.855469 C 59.589844 24.21875 60.359375 22.683594 61.285156 21.261719 C 62.25 19.867188 63.25 18.527344 64.429688 17.34375 C 66.769531 14.964844 69.515625 12.988281 72.773438 11.539062 L 73.382812 11.246094 L 74.015625 11.011719 C 74.441406 10.855469 74.871094 10.675781 75.308594 10.515625 C 76.195312 10.277344 77.105469 9.917969 78.0625 9.707031 C 79.015625 9.464844 80.003906 9.277344 81.039062 9.105469 C 82.070312 8.941406 83.144531 8.816406 84.292969 8.679688 C 82.628906 7.085938 80.519531 6.007812 78.261719 5.332031 C 77.132812 4.992188 75.960938 4.847656 74.761719 4.6875 C 74.164062 4.617188 73.566406 4.644531 72.960938 4.632812 L 72.042969 4.628906 C 71.742188 4.644531 71.441406 4.6875 71.136719 4.71875 C 66.261719 5.167969 61.507812 7.550781 58.03125 11.144531 C 56.273438 12.933594 54.894531 15.0625 53.832031 17.308594 C 52.804688 19.582031 52.222656 22.023438 52.015625 24.449219 C 51.992188 25.0625 52.007812 25.675781 52.007812 26.273438 C 52.015625 26.578125 52.007812 26.875 52.03125 27.175781 C 52.058594 27.476562 52.105469 27.777344 52.144531 28.074219 C 52.234375 28.671875 52.289062 29.257812 52.417969 29.839844 C 52.550781 30.417969 52.699219 30.988281 52.882812 31.550781 C 53.625 33.785156 54.761719 35.855469 56.40625 37.46875 C 56.578125 35.179688 56.800781 33.136719 57.222656 31.210938 Z M 272.414062 15.382812 C 271.695312 16.378906 270.964844 17.378906 270.21875 18.363281 L 269.101562 19.851562 L 268.539062 20.597656 L 267.945312 21.308594 L 265.527344 24.140625 L 264.304688 25.554688 L 263.011719 26.898438 C 261.292969 28.699219 259.554688 30.5 257.691406 32.160156 L 254.914062 34.691406 C 253.960938 35.503906 252.984375 36.289062 252.023438 37.089844 C 249.507812 39.140625 238.832031 50.855469 238.175781 51.636719 C 237.546875 52.445312 236.890625 53.230469 236.242188 54.03125 C 235.59375 54.828125 234.945312 55.628906 234.246094 56.378906 C 228.785156 62.535156 222.464844 68.027344 215.484375 72.648438 C 214.609375 73.222656 213.742188 73.8125 212.847656 74.363281 L 210.125 75.945312 C 208.324219 77.03125 206.417969 77.929688 204.527344 78.867188 C 200.742188 80.742188 196.765625 82.222656 192.726562 83.558594 C 191.730469 83.929688 190.6875 84.15625 189.664062 84.441406 L 186.574219 85.257812 C 184.5 85.695312 182.414062 86.117188 180.324219 86.5 C 180.304688 86.503906 180.285156 86.503906 180.265625 86.507812 L 177.113281 86.902344 C 176.046875 87.015625 174.992188 87.203125 173.917969 87.238281 L 170.714844 87.421875 L 169.109375 87.515625 C 168.574219 87.539062 168.035156 87.519531 167.5 87.515625 L 164.285156 87.453125 C 163.75 87.433594 163.214844 87.445312 162.679688 87.402344 L 161.078125 87.265625 C 158.941406 87.070312 156.800781 86.957031 154.691406 86.550781 L 151.523438 86.023438 C 150.46875 85.851562 149.4375 85.554688 148.394531 85.324219 L 145.273438 84.582031 C 144.242188 84.3125 143.234375 83.945312 142.21875 83.632812 L 139.175781 82.648438 C 138.179688 82.273438 137.199219 81.867188 136.210938 81.476562 C 135.222656 81.085938 134.234375 80.695312 133.257812 80.285156 C 132.300781 79.832031 131.355469 79.355469 130.402344 78.890625 L 127.5625 77.484375 C 126.632812 76.984375 125.726562 76.449219 124.820312 75.914062 L 122.105469 74.300781 C 121.203125 73.765625 120.363281 73.132812 119.492188 72.554688 C 117.761719 71.371094 116.023438 70.207031 114.425781 68.867188 L 111.992188 66.917969 L 110.78125 65.933594 C 110.390625 65.597656 110.015625 65.234375 109.632812 64.882812 C 108.125 63.464844 106.574219 62.097656 105.117188 60.640625 L 100.910156 56.128906 L 100.410156 55.578125 C 100.398438 55.566406 100.386719 55.554688 100.375 55.542969 L 99.90625 54.964844 L 98.933594 53.773438 C 98.289062 52.976562 85.574219 38.777344 83.128906 36.761719 L 81.671875 35.578125 L 80.949219 34.984375 L 80.253906 34.359375 L 77.488281 31.832031 L 74.75 29.296875 C 73.847656 28.4375 73.011719 27.507812 72.148438 26.617188 L 69.585938 23.917969 L 68.320312 22.558594 L 67.121094 21.136719 C 67.101562 21.109375 67.078125 21.082031 67.058594 21.058594 C 66.351562 20.1875 67.453125 19.027344 68.355469 19.683594 C 68.378906 19.699219 68.398438 19.714844 68.417969 19.726562 L 69.882812 20.824219 L 71.40625 21.855469 L 74.421875 23.917969 C 75.429688 24.601562 76.410156 25.308594 77.425781 25.976562 L 80.507812 27.902344 L 83.5625 29.839844 L 84.304688 30.3125 C 84.316406 30.320312 84.332031 30.328125 84.347656 30.339844 L 85.113281 30.769531 L 86.6875 31.660156 C 94.996094 36.496094 103.558594 40.730469 112.425781 44.035156 C 130.105469 50.738281 148.765625 54.136719 167.460938 54.0625 C 186.148438 53.984375 204.867188 50.601562 222.621094 44.03125 C 240.40625 37.492188 257.152344 27.886719 272.414062 15.382812 " fill-opacity="1" fill-rule="nonzero"/></g><g fill="#000000" fill-opacity="1"><g transform="translate(6.010696, 103.732632)"><g><path d="M 34.15625 -19.265625 L 34.15625 0 L 18.96875 0 L 18.96875 -19.5 L -1.53125 -53.734375 L 14.515625 -53.734375 L 27.25 -32.390625 L 40 -53.734375 L 54.734375 -53.734375 Z M 34.15625 -19.265625 "/></g></g></g><g fill="#000000" fill-opacity="1"><g transform="translate(53.376952, 103.732632)"><g><path d="M 25.5625 0.6875 C 21.113281 0.6875 17.097656 -0.234375 13.515625 -2.078125 C 9.929688 -3.921875 7.128906 -6.476562 5.109375 -9.75 C 3.085938 -13.019531 2.078125 -16.726562 2.078125 -20.875 C 2.078125 -24.96875 3.085938 -28.648438 5.109375 -31.921875 C 7.128906 -35.203125 9.914062 -37.75 13.46875 -39.5625 C 17.03125 -41.382812 21.0625 -42.296875 25.5625 -42.296875 C 30.0625 -42.296875 34.101562 -41.382812 37.6875 -39.5625 C 41.269531 -37.75 44.054688 -35.21875 46.046875 -31.96875 C 48.046875 -28.71875 49.046875 -25.019531 49.046875 -20.875 C 49.046875 -16.726562 48.046875 -13.019531 46.046875 -9.75 C 44.054688 -6.476562 41.269531 -3.921875 37.6875 -2.078125 C 34.101562 -0.234375 30.0625 0.6875 25.5625 0.6875 Z M 25.5625 -10.90625 C 28.125 -10.90625 30.222656 -11.785156 31.859375 -13.546875 C 33.492188 -15.316406 34.3125 -17.757812 34.3125 -20.875 C 34.3125 -23.945312 33.492188 -26.351562 31.859375 -28.09375 C 30.222656 -29.832031 28.125 -30.703125 25.5625 -30.703125 C 23 -30.703125 20.898438 -29.832031 19.265625 -28.09375 C 17.628906 -26.351562 16.8125 -23.945312 16.8125 -20.875 C 16.8125 -17.757812 17.628906 -15.316406 19.265625 -13.546875 C 20.898438 -11.785156 23 -10.90625 25.5625 -10.90625 Z M 25.5625 -10.90625 "/></g></g></g><g fill="#000000" fill-opacity="1"><g transform="translate(98.670457, 103.732632)"><g><path d="M 48.4375 -41.609375 L 48.4375 0 L 34.546875 0 L 34.546875 -4.453125 C 33.003906 -2.765625 31.160156 -1.484375 29.015625 -0.609375 C 26.867188 0.253906 24.59375 0.6875 22.1875 0.6875 C 16.8125 0.6875 12.523438 -0.894531 9.328125 -4.0625 C 6.128906 -7.238281 4.53125 -12 4.53125 -18.34375 L 4.53125 -41.609375 L 19.109375 -41.609375 L 19.109375 -20.734375 C 19.109375 -17.609375 19.695312 -15.328125 20.875 -13.890625 C 22.050781 -12.460938 23.769531 -11.75 26.03125 -11.75 C 28.332031 -11.75 30.210938 -12.550781 31.671875 -14.15625 C 33.128906 -15.769531 33.859375 -18.242188 33.859375 -21.578125 L 33.859375 -41.609375 Z M 48.4375 -41.609375 "/></g></g></g><g fill="#000000" fill-opacity="1"><g transform="translate(145.95995, 103.732632)"><g><path d="M 5.375 -53.734375 L 30.78125 -53.734375 C 36.664062 -53.734375 41.882812 -52.632812 46.4375 -50.4375 C 51 -48.238281 54.53125 -45.113281 57.03125 -41.0625 C 59.539062 -37.019531 60.796875 -32.289062 60.796875 -26.875 C 60.796875 -21.445312 59.539062 -16.710938 57.03125 -12.671875 C 54.53125 -8.628906 51 -5.503906 46.4375 -3.296875 C 41.882812 -1.097656 36.664062 0 30.78125 0 L 5.375 0 Z M 30.171875 -12.125 C 34.773438 -12.125 38.46875 -13.425781 41.25 -16.03125 C 44.039062 -18.644531 45.4375 -22.257812 45.4375 -26.875 C 45.4375 -31.476562 44.039062 -35.082031 41.25 -37.6875 C 38.46875 -40.300781 34.773438 -41.609375 30.171875 -41.609375 L 20.578125 -41.609375 L 20.578125 -12.125 Z M 30.171875 -12.125 "/></g></g></g><g fill="#000000" fill-opacity="1"><g transform="translate(203.53646, 103.732632)"><g><path d="M 47.203125 -20.734375 C 47.203125 -20.628906 47.128906 -19.425781 46.984375 -17.125 L 16.734375 -17.125 C 17.347656 -14.96875 18.535156 -13.3125 20.296875 -12.15625 C 22.066406 -11.007812 24.28125 -10.4375 26.9375 -10.4375 C 28.9375 -10.4375 30.664062 -10.71875 32.125 -11.28125 C 33.582031 -11.84375 35.054688 -12.765625 36.546875 -14.046875 L 44.21875 -6.0625 C 40.175781 -1.5625 34.265625 0.6875 26.484375 0.6875 C 21.617188 0.6875 17.34375 -0.234375 13.65625 -2.078125 C 9.976562 -3.921875 7.128906 -6.476562 5.109375 -9.75 C 3.085938 -13.019531 2.078125 -16.726562 2.078125 -20.875 C 2.078125 -24.96875 3.0625 -28.640625 5.03125 -31.890625 C 7 -35.140625 9.722656 -37.6875 13.203125 -39.53125 C 16.679688 -41.375 20.597656 -42.296875 24.953125 -42.296875 C 29.097656 -42.296875 32.859375 -41.4375 36.234375 -39.71875 C 39.609375 -38.007812 42.28125 -35.53125 44.25 -32.28125 C 46.21875 -29.03125 47.203125 -25.179688 47.203125 -20.734375 Z M 25.03125 -31.9375 C 22.769531 -31.9375 20.882812 -31.296875 19.375 -30.015625 C 17.875 -28.734375 16.914062 -26.992188 16.5 -24.796875 L 33.546875 -24.796875 C 33.140625 -26.992188 32.179688 -28.734375 30.671875 -30.015625 C 29.160156 -31.296875 27.28125 -31.9375 25.03125 -31.9375 Z M 25.03125 -31.9375 "/></g></g></g><g fill="#000000" fill-opacity="1"><g transform="translate(246.987516, 103.732632)"><g><path d="M 58.875 -42.296875 C 64 -42.296875 68.082031 -40.757812 71.125 -37.6875 C 74.164062 -34.625 75.6875 -29.992188 75.6875 -23.796875 L 75.6875 0 L 61.109375 0 L 61.109375 -21.421875 C 61.109375 -24.335938 60.554688 -26.484375 59.453125 -27.859375 C 58.347656 -29.242188 56.800781 -29.9375 54.8125 -29.9375 C 52.613281 -29.9375 50.847656 -29.164062 49.515625 -27.625 C 48.179688 -26.09375 47.515625 -23.769531 47.515625 -20.65625 L 47.515625 0 L 32.9375 0 L 32.9375 -21.421875 C 32.9375 -27.097656 30.835938 -29.9375 26.640625 -29.9375 C 24.390625 -29.9375 22.597656 -29.164062 21.265625 -27.625 C 19.929688 -26.09375 19.265625 -23.769531 19.265625 -20.65625 L 19.265625 0 L 4.6875 0 L 4.6875 -41.609375 L 18.578125 -41.609375 L 18.578125 -37.234375 C 20.109375 -38.921875 21.9375 -40.1875 24.0625 -41.03125 C 26.1875 -41.875 28.503906 -42.296875 31.015625 -42.296875 C 33.929688 -42.296875 36.539062 -41.757812 38.84375 -40.6875 C 41.144531 -39.613281 43.015625 -37.972656 44.453125 -35.765625 C 46.085938 -37.867188 48.15625 -39.484375 50.65625 -40.609375 C 53.164062 -41.734375 55.90625 -42.296875 58.875 -42.296875 Z M 58.875 -42.296875 "/></g></g></g><g fill="#000000" fill-opacity="1"><g transform="translate(321.376393, 103.732632)"><g><path d="M 48.515625 -41.609375 L 30.546875 1.6875 C 28.453125 6.800781 25.894531 10.394531 22.875 12.46875 C 19.851562 14.539062 16.171875 15.578125 11.828125 15.578125 C 9.617188 15.578125 7.398438 15.234375 5.171875 14.546875 C 2.953125 13.859375 1.148438 12.953125 -0.234375 11.828125 L 4.84375 1.609375 C 5.65625 2.378906 6.632812 2.976562 7.78125 3.40625 C 8.9375 3.84375 10.101562 4.0625 11.28125 4.0625 C 12.664062 4.0625 13.804688 3.78125 14.703125 3.21875 C 15.597656 2.65625 16.351562 1.757812 16.96875 0.53125 L -0.84375 -41.609375 L 14.125 -41.609375 L 24.328125 -16.203125 L 34.625 -41.609375 Z M 48.515625 -41.609375 "/></g></g></g></svg>